<?xml version="1.0" encoding="UTF-8"?><svg id="Layer_1" xmlns="http://www.w3.org/2000/svg" viewBox="0 0 173 240"><defs><style>.cls-1{fill:#fff;stroke-width:0px;}</style></defs><path class="cls-1" d="m59.47,65.5l4.98.03c1,0,1.8.82,1.8,1.81v119.18c0,24.28-19.8,43.97-44.22,43.97l-4.98-.03c-1,0-1.8-.82-1.8-1.81v-119.18c0-24.29,19.8-43.97,44.22-43.97Z"/><path class="cls-1" d="m78.55,57.27v.43c0,.99.81,1.8,1.8,1.8h35.63c25.28,0,45.77-20.49,45.77-45.77v-.43c0-.99-.81-1.8-1.8-1.8h-35.63c-25.28,0-45.77,20.49-45.77,45.77Z"/><path class="cls-1" d="m72.2,111.27v.43c0,.99.81,1.8,1.8,1.8h35.63c25.28,0,45.77-20.49,45.77-45.77v-.43c0-.99-.81-1.8-1.8-1.8h-35.63c-25.28,0-45.77,20.49-45.77,45.77Z"/><path class="cls-1" d="m15.45,57.27v.43c0,.99.81,1.8,1.8,1.8h19.36c25.28,0,45.77-20.49,45.77-45.77v-.43c0-.99-.81-1.8-1.8-1.8h-19.36c-25.28,0-45.77,20.49-45.77,45.77Z"/></svg>