<?xml version="1.0" encoding="UTF-8"?><svg id="Layer_1" xmlns="http://www.w3.org/2000/svg" viewBox="0 0 173 240"><defs><style>.cls-1{stroke-width:0px;}</style></defs><path class="cls-1" d="m59.47,65.5l4.98.03c1,0,1.8.82,1.8,1.81v119.18c0,24.28-19.8,43.97-44.22,43.97l-4.98-.03c-1,0-1.8-.82-1.8-1.81v-119.18c0-24.29,19.8-43.97,44.22-43.97Z"/><path class="cls-1" d="m78.55,57.27v.43c0,.99.81,1.8,1.8,1.8h35.63c25.28,0,45.77-20.49,45.77-45.77v-.43c0-.99-.81-1.8-1.8-1.8h-35.63c-25.28,0-45.77,20.49-45.77,45.77Z"/><path class="cls-1" d="m72.2,111.27v.43c0,.99.81,1.8,1.8,1.8h35.63c25.28,0,45.77-20.49,45.77-45.77v-.43c0-.99-.81-1.8-1.8-1.8h-35.63c-25.28,0-45.77,20.49-45.77,45.77Z"/><path class="cls-1" d="m15.45,57.27v.43c0,.99.81,1.8,1.8,1.8h19.36c25.28,0,45.77-20.49,45.77-45.77v-.43c0-.99-.81-1.8-1.8-1.8h-19.36c-25.28,0-45.77,20.49-45.77,45.77Z"/><path class="cls-1" d="m59.47,66.5l4.98.03c.45,0,.81.37.81.81v119.18c0,23.69-19.39,42.97-43.21,42.97l-4.98-.03c-.45,0-.81-.37-.81-.81v-119.18c0-23.69,19.39-42.97,43.21-42.97m0-1c-24.42,0-44.22,19.69-44.22,43.97v119.18c0,1,.81,1.81,1.8,1.81l4.98.03c24.42,0,44.22-19.69,44.22-43.97v-119.18c0-1-.81-1.81-1.8-1.81l-4.98-.03h0Z"/><path class="cls-1" d="m159.95,12.5c.44,0,.8.36.8.8v.43c0,24.69-20.08,44.77-44.77,44.77h-35.63c-.44,0-.8-.36-.8-.8v-.43c0-24.69,20.08-44.77,44.77-44.77h35.63m0-1h-35.63c-25.28,0-45.77,20.49-45.77,45.77v.43c0,.99.81,1.8,1.8,1.8h35.63c25.28,0,45.77-20.49,45.77-45.77v-.43c0-.99-.81-1.8-1.8-1.8h0Z"/><path class="cls-1" d="m153.6,66.5c.44,0,.8.36.8.8v.43c0,24.69-20.08,44.77-44.77,44.77h-35.63c-.44,0-.8-.36-.8-.8v-.43c0-24.69,20.08-44.77,44.77-44.77h35.63m0-1h-35.63c-25.28,0-45.77,20.49-45.77,45.77v.43c0,.99.81,1.8,1.8,1.8h35.63c25.28,0,45.77-20.49,45.77-45.77v-.43c0-.99-.81-1.8-1.8-1.8h0Z"/><path class="cls-1" d="m80.59,12.5c.44,0,.8.36.8.8v.43c0,24.69-20.08,44.77-44.77,44.77h-19.36c-.44,0-.8-.36-.8-.8v-.43c0-24.69,20.08-44.77,44.77-44.77h19.36m0-1h-19.36c-25.28,0-45.77,20.49-45.77,45.77v.43c0,.99.81,1.8,1.8,1.8h19.36c25.28,0,45.77-20.49,45.77-45.77v-.43c0-.99-.81-1.8-1.8-1.8h0Z"/></svg>